<?xml version="1.0" encoding="UTF-8"?>
<svg id="_レイヤー_1" data-name="レイヤー_1" xmlns="http://www.w3.org/2000/svg" version="1.1" viewBox="0 0 80 80">
  <!-- Generator: Adobe Illustrator 30.2.1, SVG Export Plug-In . SVG Version: 2.1.1 Build 1)  -->
  <defs>
    <style>
      .st0 {
        fill: #fff;
      }

      .st1 {
        fill: #4d4d4d;
      }
    </style>
  </defs>
  <polygon class="st0" points="69.7438 69.5886 10.2562 69.5886 21.7209 45.8599 58.2791 45.8599 69.7438 69.5886"/>
  <path class="st1" d="M70.6377,69.1572l-11.4648-23.7285c-.166-.3428-.5127-.5605-.8936-.5605h-12.3213l5.9044-12.3914c2.0986-4.4044,2.5488-9.0875,1.1409-13.6874-1.8155-5.9315-6.8879-9.3889-13.0379-9.37-5.9226.0181-10.9067,3.2297-12.816,8.9261-1.5428,4.6032-1.227,9.4392.8922,13.9016l5.9938,12.6212h-12.3146c-.3809,0-.7275.2178-.8936.5605l-11.4644,23.7285c-.1484.3076-.1284.6699.0532.959s.499.4648.8403.4648h59.4878c.3418,0,.6592-.1758.8408-.4648.1807-.2891.2012-.6514.0527-.959ZM11.8374,68.5967l10.5059-21.7441h12.6345l4.3167,9.0897c.1678.3534.5742.4346.7836.408.163-.0208.4615-.1104.6004-.4019l4.334-9.0958h12.6448l10.5059,21.7441H11.8374Z"/>
  <path class="st0" d="M38.1959,16.6437c4.1341-1.0457,7.9654,1.513,8.8764,5.4416.8604,3.7103-1.483,7.6283-5.3028,8.5696-3.836.9452-7.7511-1.2814-8.7929-5.2352-.9548-3.6234,1.1386-7.7437,5.2194-8.776Z"/>
</svg>